<svg id="Layer_1" data-name="Layer 1" xmlns="http://www.w3.org/2000/svg" viewBox="0 0 2478.34 2957.3"><defs><style>.cls-1{fill:#006837;fill-rule:evenodd;}</style></defs><title>agua</title><path class="cls-1" d="M2564.5,2034.36H2396.69a205.15,205.15,0,0,0,19.94-88.49h0c0-88.27-55.53-163.58-133.64-193.12A717.23,717.23,0,0,1,2310.81,1951c0,412.11-348.78,746.19-779,746.19s-779-334.08-779-746.19a719,719,0,0,1,15.83-150.39l12.95-48.23.47-13H594.84c-114.33,0-207,92.45-207,206.48s92.69,206.49,207,206.49H762.65a206.25,206.25,0,0,0,6.1,188.79H503.16c-116,0-210,93.77-210,209.44s94,209.43,210,209.43H601.1q-.33,5.86-.34,11.8c0,114,92.68,206.49,207,206.49H2422.54c114.34,0,207-92.45,207-206.49h0c0-114-92.69-206.48-207-206.48H2321.46c.34-4.88.53-9.79.53-14.75a208,208,0,0,0-27.26-103.25H2564.5c114.34,0,207-92.44,207-206.48h0C2771.52,2126.81,2678.84,2034.36,2564.5,2034.36Z" transform="translate(-293.18 -21)"/><path class="cls-1" d="M1788.41,1237c-248.14,0-449.3-206.72-449.3-461.73a475.83,475.83,0,0,1,9.13-93l7.47-29.84.42-12.48C1370.41,476.56,1485.62,257.82,1786.69,21c273.7,215.29,393.8,415.64,424.1,573l5.85,41.49.88,2.47a473.59,473.59,0,0,1,20.2,137.3c0,255-201.16,461.73-449.31,461.73Z" transform="translate(-293.18 -21)"/><path class="cls-1" d="M908.8,1592.91c-145.17,0-262.86-120.94-262.86-270.14a278.8,278.8,0,0,1,5.34-54.44l4.37-17.46.24-7.3c8.36-95.56,75.76-223.52,251.9-362.08,160.13,126,230.39,243.17,248.12,335.23l3.42,24.28.52,1.44a277,277,0,0,1,11.82,80.33c0,149.2-117.69,270.14-262.87,270.14Z" transform="translate(-293.18 -21)"/><path class="cls-1" d="M1531.93,2359.27c-198.74,0-359.84-165.57-359.84-369.81a380.77,380.77,0,0,1,7.31-74.52l6-23.91.33-10c11.45-130.81,103.72-306,344.84-495.67,219.21,172.43,315.4,332.89,339.67,458.92l4.68,33.22.7,2a378.89,378.89,0,0,1,16.18,110c0,204.24-161.11,369.81-359.85,369.81Z" transform="translate(-293.18 -21)"/></svg>