<svg id="Layer_1" data-name="Layer 1" xmlns="http://www.w3.org/2000/svg" viewBox="0 0 2930.1 2282.29"><defs><style>.cls-1,.cls-4{fill:#7f7f7f;}.cls-1,.cls-2,.cls-3{fill-rule:evenodd;}.cls-2{fill:#6b6dff;}.cls-3{fill:#636fdb;}</style></defs><title>carrinho</title><path class="cls-1" d="M2010,1291.28a131.92,131.92,0,0,0,186.58,10.94L2778.9,783.47c54.6-48.63,59.57-132.37,11.11-187h0a131.94,131.94,0,0,0-186.59-10.94l-582.35,518.75c-54.59,48.63-59.56,132.37-11.1,187Z" transform="translate(-34.9 -423.57)"/><path class="cls-2" d="M1747.4,1380.37a97.36,97.36,0,0,0-97.3,97.4v539.09a97.31,97.31,0,1,0,194.61,0V1477.77a97.36,97.36,0,0,0-97.31-97.4Zm-480.71,0a97.36,97.36,0,0,0-97.3,97.4v539.09a97.31,97.31,0,1,0,194.61,0V1477.77a97.36,97.36,0,0,0-97.31-97.4Zm-458.55,0a97.35,97.35,0,0,0-97.3,97.4v539.09a97.3,97.3,0,1,0,194.6,0V1477.77a97.35,97.35,0,0,0-97.3-97.4Zm-489-379.31a143,143,0,0,1,146.53,105.85l26.1,97.5h1556l26.1-97.49a142.8,142.8,0,0,1,175.11-101.21c76.27,20.46,121.53,98.94,101.1,175.29l-270.3,1009.76c-12.83,47.93-48.5,83.62-93,96-19.88,18.08-46.44,27.9-75.3,27.9H633.6c-26.33,0-50.76-8.18-69.57-24-49.35-10.11-90.29-47.76-104.24-99.86L189.5,1181c-20.44-76.35,24.82-154.83,101.1-175.29a144,144,0,0,1,28.58-4.65Z" transform="translate(-34.9 -423.57)"/><path class="cls-3" d="M34.9,1105.31c0-74.21,60.32-134.37,134.72-134.37H2400c74.4,0,134.72,60.16,134.72,134.37h0c0,74.21-60.32,134.37-134.72,134.37H169.62c-74.4,0-134.72-60.16-134.72-134.37Z" transform="translate(-34.9 -423.57)"/><circle class="cls-4" cx="2715.29" cy="214.8" r="214.8"/><circle class="cls-4" cx="474.96" cy="2049.03" r="233.26"/><circle class="cls-4" cx="1968.52" cy="2020.5" r="233.26"/></svg>