<svg id="Layer_1" data-name="Layer 1" xmlns="http://www.w3.org/2000/svg" viewBox="0 0 2999.95 2762.15"><defs><style>.cls-1{fill:#6162f8;}</style></defs><title>composter</title><path class="cls-1" d="M256,2169.38c.76,3.25,7.47,30.1,31.68,40.06,25,10.29,58.71-1.45,76-30.81a67.54,67.54,0,0,0,123.54,0c2.52,3.51,20.69,28,53.86,30.81,40.76,3.41,65.41-29.29,66.52-30.81,4.91,5,24.18,23.25,53.86,24.65,30.38,1.43,59.77-15.39,76-43.15a75.77,75.77,0,0,0,66.53,40.07c40,.12,61.92-31.72,63.36-33.9,9.6,25.92,33.28,44.1,60.19,46.23,31.73,2.51,62.46-17.75,72.86-49.31a72.36,72.36,0,0,0,136.21,3.08c6.81,27.88,33.39,46.08,60.19,43.14,22.78-2.49,42.18-19.84,47.52-43.14a73.75,73.75,0,0,0,72.86,30.82,72.17,72.17,0,0,0,57-49.31,73,73,0,0,0,31.68,37c17.64,10.12,47.39,9.23,47.52,9.24a45.59,45.59,0,0,0,25.34-3.08c19.43-8.53,24.67-28.13,25.35-30.82,1.55,3,17.38,32.2,50.68,37,28.93,4.15,58.83-11.89,72.86-40.07.45,2.3,7.63,36.41,34.85,46.23,27.91,10.07,68-8.6,82.36-49.31,1.09,2.34,18.39,38,57,43.15,32.15,4.3,65.08-14.36,79.2-46.23,9.76,28,36.83,46.64,66.53,46.23A69.54,69.54,0,0,0,2011,2154c6,28.72,32.52,48.27,60.19,46.23,23.76-1.75,44.52-19.14,50.69-43.15,2.38,4,21.77,35.1,60.19,40.07,32.07,4.14,64.53-11.61,82.36-40.07,13.55,21,38,32.87,63.36,30.82,25.11-2,47.1-17.49,57-40.06,8.18,28,33.84,47.94,63.36,49.31,28.27,1.31,54.79-14.63,66.52-40.07a77.91,77.91,0,0,0,136.22,0c5.23,5.58,31,31.91,72.86,33.9,31.33,1.5,55.51-11.42,70.7-23q-.93-242.28-1.88-484.57l-1340.7-127.25L170.18,1680.93l3.45,525.43h0C204.77,2210.57,236.55,2196.14,256,2169.38Z" transform="translate(-0.05 -119.14)"/><path class="cls-1" d="M1448.75,1171.5l1.7.32,1.46-.32v.6l1338.36,251q-.32-79.59-.62-159.18L1466.15,949.53v.08L165.41,1298q.5,76.55,1,153.09l1282.34-278.88Z" transform="translate(-0.05 -119.14)"/><path class="cls-1" d="M1597.74,144.06c-14.83-6.31-62.93-27.5-126.35-24.66a274.64,274.64,0,0,0-120.2,33.9L1.33,686.47C-.43,700.53-5.3,753.09,29.07,791.25c19.1,21.21,42.51,29.3,64.72,37A236.86,236.86,0,0,0,161.65,841l.84,127.3L1459.83,541.62,2788,950.13l-.63-162.91,3.07.95c16.55,3.09,64.85,9.87,117.11-15.41,62.28-30.13,86.73-84.76,92.46-98.62C2240.93,389.68,1691,183.73,1597.74,144.06Z" transform="translate(-0.05 -119.14)"/><path class="cls-1" d="M1453.48,2517.63,175.3,2461.51q.84,129.76,1.7,259.53l1300.55,160.25,1319.05-169.5-1.11-285.25Z" transform="translate(-0.05 -119.14)"/></svg>