<svg id="Layer_1" data-name="Layer 1" xmlns="http://www.w3.org/2000/svg" viewBox="0 0 2787.53 2995.63"><defs><style>.cls-1{fill:#6b6dff;}.cls-2{fill:#5d6ec1;}.cls-3{fill:#6472d8;}.cls-4{fill:#6162f8;}</style></defs><title>composteira</title><path class="cls-1" d="M297,2848.72l-14.31-2185,1199.87-484,1240,441q4.3,1109.67,8.6,2219.34l-1225.65,157.5Z" transform="translate(-132.58 -2)"/><path class="cls-2" d="M282.69,804.07,1496.88,394.56l5.73,486.83-1219.92,335Z" transform="translate(-132.58 -2)"/><path class="cls-3" d="M1491.15,878.52l1234.24,300.69q-1.44-199-2.87-398.05L1496.88,394.56Z" transform="translate(-132.58 -2)"/><path class="cls-2" d="M288.41,1356.75,1494,1087.57v678.69L291.28,1886.53Q289.84,1621.65,288.41,1356.75Z" transform="translate(-132.58 -2)"/><path class="cls-3" d="M2728.25,1886.53q-1.42-280.63-2.86-561.28L1491.15,1087.57q1.44,339.35,2.86,678.69Z" transform="translate(-132.58 -2)"/><path class="cls-2" d="M294.14,2341.85c4.05,5.11,20.61,24.74,48.68,28.64s56.85-9.5,74.46-34.36c.68,3,6.75,28,28.63,37.22,22.58,9.56,53.07-1.35,68.73-28.63,9.16,21.21,29.1,35.65,51.55,37.22,25.32,1.78,49.58-13.13,60.14-37.22,2.27,3.26,18.69,26.06,48.68,28.63,36.85,3.17,59.13-27.22,60.13-28.63,4.45,4.61,21.86,21.6,48.69,22.91,27.46,1.33,54-14.31,68.72-40.1a68.25,68.25,0,0,0,60.14,37.23c36.2.12,56-29.47,57.27-31.5,8.68,24.09,30.09,41,54.41,43,28.7,2.33,56.47-16.5,65.87-45.82,8.19,25.71,31,43.9,57.27,45.82,28.5,2.08,55.57-15.41,65.87-43,6.14,25.91,30.17,42.82,54.41,40.09,20.58-2.31,38.12-18.43,43-40.09a65.39,65.39,0,0,0,117.41-17.18,67.42,67.42,0,0,0,28.64,34.36c15.94,9.41,42.84,8.58,43,8.59v300.69l-1205.6-54.41Z" transform="translate(-132.58 -2)"/><path class="cls-3" d="M1545.56,2327.53c1.4,2.77,15.72,29.92,45.82,34.37,26.15,3.86,53.18-11,65.86-37.23.41,2.14,6.9,33.83,31.5,43,25.23,9.36,61.43-8,74.46-45.82,1,2.17,16.62,35.28,51.54,40.09,29.06,4,58.83-13.34,71.6-43,8.82,26,33.29,43.35,60.13,43,25.15-.37,47.9-16.25,57.28-40.09,5.39,26.68,29.39,44.85,54.41,43,21.48-1.63,40.24-17.78,45.81-40.09,2.16,3.69,19.69,32.61,54.41,37.23,29,3.85,58.34-10.79,74.46-37.23a61.58,61.58,0,0,0,108.82-8.59,62.47,62.47,0,0,0,117.41,8.59,69.51,69.51,0,0,0,123.14,0c4.72,5.18,28,29.64,65.86,31.5,47.84,2.35,77.26-33.53,80.18-37.23q1.44,127.44,2.87,254.87l-1231.38,85.91V2359a40.21,40.21,0,0,0,22.91-2.86C1540.21,2348.25,1545,2330,1545.56,2327.53Z" transform="translate(-132.58 -2)"/><path class="cls-4" d="M297,2848.72V2665.45l1208.47,80.18v252Z" transform="translate(-132.58 -2)"/><path class="cls-4" d="M2731.12,2840.13V2631.08L1505.47,2745.63v252Z" transform="translate(-132.58 -2)"/><path class="cls-4" d="M308.46,672.34a222.45,222.45,0,0,1-88.77-11.46c-20.64-7.13-42.39-14.66-60.14-34.36-31.94-35.46-27.41-84.3-25.77-97.36L1388.06,33.74a255.15,255.15,0,0,1,111.68-31.5c58.93-2.64,103.63,17,117.41,22.91,86.68,36.86,597.64,228.23,1303,492.55-5.33,12.88-28,63.65-85.91,91.64-48.57,23.49-93.45,17.19-108.82,14.32L1482.56,239.93Z" transform="translate(-132.58 -2)"/></svg>