<svg id="Layer_1" data-name="Layer 1" xmlns="http://www.w3.org/2000/svg" viewBox="0 0 1759.37 2873"><defs><style>.cls-1{fill:#006837;fill-rule:evenodd;}</style></defs><title>fogo</title><path class="cls-1" d="M1673.36,2936.8c-118.56-12.83-313.94-49.44-520-169-133.13-77.24-388.13-225.2-491-527-99.32-291.38.85-557,45-674,53.14-140.89,119.79-234.25,221-376,183.47-257,290.36-308.83,404-522,100.05-187.69,130.8-261.33,123-339-12.88-128.29-94.46-220.16-143-266a866.66,866.66,0,0,1,229,82c49.39,26.07,263.34,139,359,359,92.82,213.48,28.06,421.55-20,576-98.88,317.72-233.35,332.79-397,711-84.9,196.19-155,358.16-134,564C1379.65,2653.08,1580.85,2855.06,1673.36,2936.8Z" transform="translate(-619.89 -63.8)"/><path class="cls-1" d="M2225.05,2804c-66.69-7.22-176.6-27.82-292.52-95.07-74.89-43.45-218.34-126.68-276.2-296.46-55.87-163.91.48-313.3,25.31-379.14C1711.53,1954,1749,1901.51,1806,1821.77c103.21-144.56,163.34-173.72,227.26-293.64,56.29-105.58,73.58-147,69.2-190.7-7.25-72.17-53.14-123.84-80.45-149.63a487.29,487.29,0,0,1,128.82,46.13c27.79,14.66,148.14,78.19,201.95,202,52.22,120.09,15.79,237.13-11.25,324-55.62,178.73-131.26,187.21-223.32,400-47.76,110.36-87.18,201.47-75.38,317.27C2059.83,2644.36,2173,2758,2225.05,2804Z" transform="translate(-619.89 -63.8)"/></svg>