<svg id="Layer_1" data-name="Layer 1" xmlns="http://www.w3.org/2000/svg" viewBox="0 0 2991.49 2649.92"><defs><style>.cls-1{fill:#6b6dff;}</style></defs><title>casa</title><path class="cls-1" d="M2871.77,2537.5H2659.43V1766.21L1497,642.34,329,1766.21V2537.5H122.21a52.11,52.11,0,0,0-52.1,52.1v149.22a52.1,52.1,0,0,0,52.1,52.1H2871.77a52.1,52.1,0,0,0,52.11-52.1V2589.6A52.11,52.11,0,0,0,2871.77,2537.5ZM1188.48,1778.23a127.71,127.71,0,0,1,127.71-127.71h372.63a127.71,127.71,0,0,1,127.71,127.71V2537.5h-628Z" transform="translate(-4 -141)"/><path class="cls-1" d="M1400.14,586.08a132.78,132.78,0,0,1,182.9-.22L2753.09,1694.59l242.4,22-11-247.91-457.27-408.33V141H2141.57V716L1581,215.42a132.79,132.79,0,0,0-178.06,1.05L9.51,1490.75Q6.75,1595.44,4,1700.1l220.37,5.51Z" transform="translate(-4 -141)"/></svg>