<svg id="Layer_1" data-name="Layer 1" xmlns="http://www.w3.org/2000/svg" xmlns:xlink="http://www.w3.org/1999/xlink" viewBox="0 0 2997.19 2522.65"><defs><style>.cls-1,.cls-2,.cls-3{fill:none;}.cls-1,.cls-2{clip-rule:evenodd;}.cls-2{clip-path:url(#clip-path);}.cls-4{clip-path:url(#clip-path-2);}.cls-5{clip-path:url(#clip-path-3);}.cls-6{fill:#6c7eff;}</style><clipPath id="clip-path"><polygon id="SVGID" class="cls-1" points="-2 2761.47 3002.75 2761.47 3002.75 239 -2 239 -2 2761.47 -2 2761.47"/></clipPath><clipPath id="clip-path-2" transform="translate(-1.65 -239.07)"><polygon id="SVGID-2" data-name="SVGID" class="cls-2" points="-2 239 3002.75 239 3002.75 2761.47 -2 2761.47 -2 239 -2 239"/></clipPath><clipPath id="clip-path-3" transform="translate(-1.65 -239.07)"><polygon id="SVGID-3" data-name="SVGID" class="cls-3" points="-2 2761.47 3002.75 2761.47 3002.75 239 -2 239 -2 2761.47 -2 2761.47"/></clipPath></defs><title>porco</title><g class="cls-4"><g class="cls-5"><path class="cls-6" d="M2751.07,816c-265.24-340-637.63-418.15-768.22-445.7-47.31-10.13-293.95-59.16-606.49,0a1618.08,1618.08,0,0,0-283,81C1081.2,427,1008,287.22,850.73,248.72c-67.12-16.61-125.34-8.5-161.73,0,13.34,148.71,27.09,297,40.43,445.71A1034.41,1034.41,0,0,0,365.54,1302.2H1.65v405.19a3046.6,3046.6,0,0,0,323.46,324.14A3068.79,3068.79,0,0,0,850.73,2396.2c-25.88,204.21,20.22,352.51,80.87,364.67,56.2,11.34,143.13-91.58,202.16-243.11,67.93,20.25,124.53,32.82,161.73,40.51,128.58,26.34,498.13,87.52,930-40.51,53.78-15.81,96.64-31.2,121.3-40.52,126.55,173,265.24,273.9,323.46,243.11,60.65-32.42,54.59-218-40.43-445.71a1765.76,1765.76,0,0,0,121.3-162.07c74.8-113.45,214.69-324.55,242.59-567.26,42.05-365.07-184.37-655.18-242.59-729.33Zm-1961,526.74c-78,0-141.51-63.61-141.51-141.81s63.48-141.82,141.51-141.82,141.52,63.62,141.52,141.82-63.48,141.81-141.52,141.81Z" transform="translate(-1.65 -239.07)"/></g></g></svg>