<svg width="43.634" height="33.987" viewBox="0 0 43.634 33.987" xmlns="http://www.w3.org/2000/svg" xmlns:xlink="http://www.w3.org/1999/xlink" overflow="hidden"><g id="Grupo_3" transform="translate(-3837.97 -3537)"><path d="M4995.54 3624.53C4996.26 3625.35 4997.5 3625.42 4998.31 3624.7 4998.32 3624.7 4998.32 3624.7 4998.32 3624.7L5006.99 3616.97C5007.8 3616.25 5007.88 3615 5007.16 3614.19L5007.16 3614.19C5006.44 3613.38 5005.2 3613.3 5004.38 3614.02 5004.38 3614.02 5004.38 3614.02 5004.38 3614.02L4995.71 3621.75C4994.89 3622.47 4994.82 3623.72 4995.54 3624.53Z" id="Caminho_3" fill="#C3D6DC" fill-rule="evenodd" transform="translate(-1128.15 -74.613)"/><path d="M3950.45 3886.62C3949.65 3886.62 3949 3887.27 3949 3888.07L3949 3896.09C3949 3896.9 3949.65 3897.54 3950.45 3897.54 3951.25 3897.54 3951.9 3896.9 3951.9 3896.09L3951.9 3888.07C3951.9 3887.27 3951.25 3886.62 3950.45 3886.62 3950.45 3886.62 3950.45 3886.62 3950.45 3886.62ZM3943.29 3886.62C3942.49 3886.62 3941.84 3887.27 3941.84 3888.07L3941.84 3896.09C3941.84 3896.9 3942.49 3897.54 3943.29 3897.54 3944.09 3897.54 3944.74 3896.9 3944.74 3896.09L3944.74 3888.07C3944.74 3887.27 3944.09 3886.62 3943.29 3886.62ZM3936.46 3886.62C3935.66 3886.62 3935.01 3887.27 3935.01 3888.07L3935.01 3896.09C3935.01 3896.9 3935.66 3897.54 3936.46 3897.54 3937.26 3897.54 3937.91 3896.9 3937.91 3896.09L3937.91 3888.07C3937.91 3887.27 3937.26 3886.62 3936.46 3886.62ZM3929.18 3880.97C3930.19 3880.91 3931.1 3881.57 3931.36 3882.54L3931.75 3884 3954.92 3884 3955.31 3882.54C3955.6 3881.4 3956.75 3880.71 3957.89 3881 3959.03 3881.29 3959.73 3882.45 3959.44 3883.59 3959.43 3883.61 3959.43 3883.63 3959.42 3883.65L3955.4 3898.68C3955.22 3899.37 3954.7 3899.91 3954.01 3900.11 3953.7 3900.38 3953.3 3900.53 3952.89 3900.53L3933.86 3900.53C3933.48 3900.53 3933.12 3900.41 3932.82 3900.17 3932.07 3900.01 3931.47 3899.43 3931.27 3898.68L3927.25 3883.65C3926.94 3882.51 3927.62 3881.34 3928.76 3881.03 3928.89 3881 3929.04 3880.97 3929.18 3880.97Z" id="Caminho_4" fill="#C3D6DC" fill-rule="evenodd" transform="translate(-86.969 -335.369)"/><path d="M3837.98 3865.17C3837.98 3864.07 3838.87 3863.17 3839.98 3863.17 3839.98 3863.17 3839.98 3863.17 3839.98 3863.17L3873.19 3863.17C3874.3 3863.17 3875.2 3864.06 3875.2 3865.17 3875.2 3865.17 3875.2 3865.17 3875.2 3865.17L3875.2 3865.17C3875.2 3866.28 3874.3 3867.17 3873.2 3867.17 3873.2 3867.17 3873.2 3867.17 3873.19 3867.17L3839.98 3867.17C3838.88 3867.18 3837.98 3866.28 3837.97 3865.18 3837.97 3865.18 3837.97 3865.18 3837.97 3865.17Z" id="Caminho_5" fill="#C3D6DC" fill-rule="evenodd" transform="matrix(1 0 0 1 0 -318.021)"/><circle cx="3.199" cy="3.199" r="3.199" id="Elipse_1" fill="#C3D6DC" transform="translate(3875.21 3537)"/><circle cx="3.474" cy="3.474" r="3.474" id="Elipse_2" fill="#C3D6DC" transform="translate(3841.57 3564.04)"/><circle cx="3.474" cy="3.474" r="3.474" id="Elipse_3" fill="#C3D6DC" transform="translate(3863.82 3563.61)"/></g></svg>