<svg id="Layer_1" data-name="Layer 1" xmlns="http://www.w3.org/2000/svg" viewBox="0 0 3000.25 2336.93"><defs><style>.cls-1{fill:#7f7f7f;fill-rule:evenodd;}</style></defs><title>shopping_cart</title><path class="cls-1" d="M2780.05,293.57c-121.47,0-219.94,98.48-219.94,220,0,2.6.06,5.19.15,7.76L2186.7,854.05H137.7C61.51,854.05-.25,915.65-.25,991.63s61.76,137.59,138,137.59h36.44l260.68,973.85a144.48,144.48,0,0,0,25.24,51.15c-119.67,13-212.82,114.32-212.82,237.44,0,131.91,106.93,238.84,238.84,238.84s238.85-106.93,238.85-238.84a238,238,0,0,0-63.1-161.74H1816.67a237.72,237.72,0,0,0-40.12,132.52c0,131.92,106.93,238.85,238.85,238.85s238.84-106.93,238.84-238.85c0-108.79-72.74-200.58-172.23-229.42a145.77,145.77,0,0,0,11.66-29.95l260.68-973.85h67.09c76.19,0,137.95-61.6,137.95-137.59A136.73,136.73,0,0,0,2532,909.28l202.66-180.53a220.14,220.14,0,0,0,45.44,4.72c121.48,0,219.95-98.48,219.95-220S2901.53,293.57,2780.05,293.57ZM891.14,1925a99.64,99.64,0,1,1-199.27,0V1373a99.64,99.64,0,1,1,199.27,0Zm469.53,0a99.64,99.64,0,1,1-199.27,0V1373a99.64,99.64,0,1,1,199.27,0Zm292.95,0V1373a99.64,99.64,0,1,1,199.27,0v552a99.64,99.64,0,1,1-199.27,0Z" transform="translate(0.25 -293.57)"/></svg>