<svg id="Layer_1" data-name="Layer 1" xmlns="http://www.w3.org/2000/svg" viewBox="0 0 1408.25 2995.8"><defs><style>.cls-1{fill:#006837;}</style></defs><title>temperatura</title><path class="cls-1" d="M1828.3,1913.3V332.41C1828.3,149.93,1680.37,2,1497.89,2h0c-182.48,0-330.41,147.93-330.41,330.41v1567C1001.67,2005.18,891.71,2190.76,891.71,2402c0,329,266.74,595.78,595.78,595.78s595.77-266.74,595.77-595.78C2083.26,2199.73,1982.44,2021,1828.3,1913.3Zm-341.46,934.9c-241,0-436.43-195.39-436.43-436.42,0-169.23,96.32-316,237.11-388.35a205.05,205.05,0,0,1-3.61-38.32V331.76c0-112.43,91.14-203.58,203.58-203.58h0c112.43,0,203.57,91.15,203.57,203.58V1985.11a204.76,204.76,0,0,1-3.73,38.94c140.15,72.62,235.93,219,235.93,387.73C1923.26,2652.81,1727.87,2848.2,1486.84,2848.2Z" transform="translate(-891.71 -2)"/><circle class="cls-1" cx="595.78" cy="2413.03" r="343.42"/><rect class="cls-1" x="474.15" y="835.13" width="243.25" height="1484.24"/><rect class="cls-1" x="1031.01" y="509.92" width="377.24" height="37.72"/><rect class="cls-1" x="1031.01" y="634.8" width="304.39" height="37.72"/><rect class="cls-1" x="1031.01" y="759.68" width="377.24" height="37.72"/><rect class="cls-1" x="1031.01" y="902.77" width="304.39" height="37.72"/><rect class="cls-1" x="1031.01" y="1027.65" width="377.24" height="37.72"/><rect class="cls-1" x="1031.01" y="1152.53" width="304.39" height="37.72"/><rect class="cls-1" x="1031.01" y="1278.71" width="377.24" height="37.72"/><rect class="cls-1" x="1031.01" y="1403.59" width="304.39" height="37.72"/><rect class="cls-1" x="1031.01" y="1528.47" width="377.24" height="37.72"/></svg>