<svg width="18.869" height="40.14" viewBox="0 0 18.869 40.14" xmlns="http://www.w3.org/2000/svg" xmlns:xlink="http://www.w3.org/1999/xlink" id="Grupo_18" overflow="hidden"><path d="M-2544.03 3702.61-2544.03 3681.43C-2544.03 3678.98-2546.01 3677-2548.46 3677-2548.46 3677-2548.46 3677-2548.46 3677L-2548.46 3677C-2550.91 3677-2552.89 3678.98-2552.89 3681.43-2552.89 3681.43-2552.89 3681.43-2552.89 3681.43L-2552.89 3702.43C-2555.19 3703.89-2556.59 3706.43-2556.59 3709.16-2556.59 3713.57-2553.01 3717.14-2548.61 3717.14-2544.2 3717.14-2540.62 3713.57-2540.62 3709.16-2540.62 3706.55-2541.89 3704.1-2544.03 3702.61ZM-2548.61 3715.14C-2551.84 3715.14-2554.46 3712.52-2554.46 3709.29-2554.46 3707.1-2553.23 3705.09-2551.28 3704.09-2551.31 3703.92-2551.33 3703.75-2551.33 3703.58L-2551.33 3681.42C-2551.33 3679.92-2550.11 3678.7-2548.6 3678.7-2548.6 3678.7-2548.6 3678.7-2548.6 3678.7L-2548.6 3678.7C-2547.09 3678.69-2545.87 3679.92-2545.87 3681.42-2545.87 3681.42-2545.87 3681.42-2545.87 3681.42L-2545.87 3703.57C-2545.87 3703.75-2545.89 3703.92-2545.92 3704.1-2543.98 3705.1-2542.76 3707.1-2542.76 3709.29-2542.76 3712.52-2545.38 3715.14-2548.61 3715.14Z" id="Caminho_28" fill="#C3D6DC" transform="translate(2556.58 -3677)"/><circle cx="4.601" cy="4.601" r="4.601" id="Elipse_7" fill="#C3D6DC" transform="translate(3.381 27.73)"/><rect x="0" y="0" width="3.259" height="19.887" id="Retângulo_18" fill="#C3D6DC" transform="translate(6.353 11.19)"/><g id="Grupo_17" transform="translate(13.814 6.832)"><rect x="0" y="0" width="5.054" height="0.505" id="Retângulo_19" fill="#C3D6DC"/><rect x="0" y="0" width="4.078" height="0.505" id="Retângulo_20" fill="#C3D6DC" transform="matrix(1 0 0 1 0 1.673)"/><rect x="0" y="0" width="5.054" height="0.505" id="Retângulo_21" fill="#C3D6DC" transform="matrix(1 0 0 1 0 3.346)"/><rect x="0" y="0" width="4.078" height="0.505" id="Retângulo_22" fill="#C3D6DC" transform="matrix(1 0 0 1 0 5.264)"/><rect x="0" y="0" width="5.054" height="0.505" id="Retângulo_23" fill="#C3D6DC" transform="matrix(1 0 0 1 0 6.937)"/><rect x="0" y="0" width="4.078" height="0.505" id="Retângulo_24" fill="#C3D6DC" transform="matrix(1 0 0 1 0 8.61)"/><rect x="0" y="0" width="5.054" height="0.505" id="Retângulo_25" fill="#C3D6DC" transform="matrix(1 0 0 1 0 10.301)"/><rect x="0" y="0" width="4.078" height="0.505" id="Retângulo_26" fill="#C3D6DC" transform="matrix(1 0 0 1 0 11.974)"/><rect x="0" y="0" width="5.054" height="0.505" id="Retângulo_27" fill="#C3D6DC" transform="matrix(1 0 0 1 0 13.647)"/></g></svg>