<svg id="Layer_1" data-name="Layer 1" xmlns="http://www.w3.org/2000/svg" viewBox="0 0 1395.62 2968.93"><defs><style>.cls-1{fill:#22b573;}</style></defs><title>thermometer</title><path class="cls-1" d="M1837.67,1915.23V348.52c0-180.84-146.61-327.45-327.45-327.45h0c-180.84,0-327.44,146.61-327.44,327.45V1901.45c-164.33,104.84-273.31,288.75-273.31,498.12,0,326.08,264.35,590.43,590.44,590.43s590.43-264.35,590.43-590.43C2090.34,2199.09,1990.42,2022,1837.67,1915.23Zm-338.41,926.52c-238.87,0-432.51-193.65-432.51-432.51,0-167.71,95.45-313.11,235-384.87a203,203,0,0,1-3.59-38V347.88c0-111.43,90.33-201.76,201.76-201.76h0c111.42,0,201.75,90.33,201.75,201.76V1986.39a202.9,202.9,0,0,1-3.7,38.6c138.89,72,233.81,217,233.81,384.25C1931.77,2648.1,1738.13,2841.75,1499.26,2841.75Z" transform="translate(-909.47 -21.07)"/><path class="cls-1" d="M1620.44,2094.11V848.71H1379.37v1245.4c-128.46,48.67-219.8,172.83-219.8,318.35,0,188,152.37,340.34,340.34,340.34s340.33-152.38,340.33-340.34C1840.24,2266.94,1748.91,2142.78,1620.44,2094.11Z" transform="translate(-909.47 -21.07)"/><rect class="cls-1" x="1021.76" y="505.35" width="373.86" height="37.39"/><rect class="cls-1" x="1021.76" y="629.11" width="301.66" height="37.39"/><rect class="cls-1" x="1021.76" y="752.87" width="373.86" height="37.39"/><rect class="cls-1" x="1021.76" y="894.67" width="301.66" height="37.39"/><rect class="cls-1" x="1021.76" y="1018.43" width="373.86" height="37.39"/><rect class="cls-1" x="1021.76" y="1142.19" width="301.66" height="37.39"/><rect class="cls-1" x="1021.76" y="1267.24" width="373.86" height="37.39"/><rect class="cls-1" x="1021.76" y="1391" width="301.66" height="37.39"/><rect class="cls-1" x="1021.76" y="1514.76" width="373.86" height="37.39"/></svg>